# AST/ASF file generated using VICON BodyLanguage
# -----------------------------------------------
:version 1.10
:name VICON
:units
  mass 1.0
  length 0.45
  angle deg
:documentation
   .ast/.asf automatically generated from VICON data using
   VICON BodyBuilder and BodyLanguage model FoxedUp or BRILLIANT.MOD
:root
   order TX TY TZ RX RY RZ
   axis XYZ
   position 0 0 0  
   orientation 0 0 0 
:bonedata
  begin
     id 1 
     name lhipjoint
     direction 0.547975 -0.797114 0.253638 
     length 2.36201 
     axis 0 0 0  XYZ
  end
  begin
     id 2 
     name lfemur
     direction 0.34202 -0.939693 0  
     length 7.69075  
     axis 0 0 20  XYZ
    dof rx ry rz
    limits (-160.0 20.0)
           (-70.0 70.0)
           (-60.0 70.0)
  end
  begin
     id 3 
     name ltibia
     direction 0.34202 -0.939693 0   
     length 7.91399   
     axis 0 0 20   XYZ
    dof rx
    limits (-10.0 170.0)
  end
  begin
     id 4 
     name lfoot
     direction 0.0705293 -0.193778 0.978507   
     length 2.13618   
     axis -90 7.62852e-016 20   XYZ
    dof rx rz
    limits (-45.0 90.0)
           (-70.0 20.0)
  end
  begin
     id 5 
     name ltoes
     direction 1.53592e-011 -4.21925e-011 1   
     length 1.07518   
     axis -90 7.62852e-016 20   XYZ
    dof rx
    limits (-90.0 20.0)
  end
  begin
     id 6 
     name rhipjoint
     direction -0.57 -0.782963 0.249136   
     length 2.4047  
     axis 0 0 0  XYZ 
  end
  begin
     id 7 
     name rfemur
     direction -0.34202 -0.939693 0   
     length 7.51486   
     axis 0 0 -20   XYZ
    dof rx ry rz
    limits (-160.0 20.0)
           (-70.0 70.0)
           (-70.0 60.0)
  end
  begin
     id 8 
     name rtibia
     direction -0.34202 -0.939693 0   
     length 8.08317   
     axis 0 0 -20   XYZ
    dof rx
    limits (-10.0 170.0)
 end
 begin
     id 9 
     name rfoot
     direction -0.104954 -0.281256 0.953876   
     length 2.30343  
     axis -90 -7.62852e-016 -20   XYZ
    dof rx rz
    limits (-45.0 90.0)
           (-20.0 70.0)
  end
  begin
     id 10 
     name rtoes
     direction -1.53556e-011 -4.21922e-011 1   
     length 1.14803   
     axis -90 -7.62852e-016 -20   XYZ
    dof rx
    limits (-90.0 20.0)
  end
  begin
     id 11 
     name lowerback
     direction -0.0152855 0.99353 -0.11254   
     length 2.05311   
     axis 0 0 0   XYZ
    dof rx ry rz
    limits (-20.0 45.0)
           (-30.0 30.0)
           (-30.0 30.0)
  end
  begin
     id 12 
     name upperback
     direction -0.00157509 0.999443 -0.033332   
     length 2.06353   
     axis 0 0 0   XYZ
    dof rx ry rz
    limits (-20.0 45.0)
           (-30.0 30.0)
           (-30.0 30.0)
  end
  begin
     id 13 
     name thorax
     direction 0.00577788 0.999804 0.0189484   
     length 2.08472   
     axis 0 0 0   XYZ
    dof rx ry rz
    limits (-20.0 45.0)
           (-30.0 30.0)
           (-30.0 30.0)
  end
  begin
     id 14 
     name lowerneck
     direction -1.09301e-005 0.994719 0.10264   
     length 1.76249   
     axis 0 0 0   XYZ
    dof rx ry rz
    limits (-20.0 45.0)
           (-30.0 30.0)
           (-30.0 30.0)
  end
  begin
     id 15 
     name upperneck
     direction 0.0495018 0.988526 -0.142706   
     length 1.77897   
     axis 0 0 0   XYZ
    dof rx ry rz
    limits (-20.0 45.0)
           (-30.0 30.0)
           (-30.0 30.0)
  end
  begin
     id 16
     name head
     direction 0.0142736 0.998114 -0.0597101  
     length 1.78934  
     axis 0 0 0   XYZ
    dof rx ry rz
    limits (-20.0 45.0)
           (-30.0 30.0)
           (-30.0 30.0)
  end
  begin
     id 17 
     name lclavicle
     direction 0.918111 0.396107 -0.0130883  
     length 3.37276  
     axis 0 0 0   XYZ
    dof ry rz
    limits (-20.0 10.0)
           (0.0 20.0)
  end
  begin
     id 18 
     name lhumerus
     direction 1 -4.48975e-011 -3.26108e-027   
     length 5.34298   
     axis 180 -30 -90   XYZ
    dof rx ry rz
    limits (-60.0 90.0)
           (-90.0 90.0)
           (-90.0 90.0)
  end
  begin
     id 19
     name lradius
     direction 1 -4.48964e-011 -8.84413e-028   
     length 3.67262   
     axis 180 -30 -90   XYZ
    dof rx
    limits (-10.0 170.0)
  end
  begin
     id 20
     name lwrist
     direction 1 -4.48991e-011 -1.24264e-027   
     length 1.83631   
     axis -2.17013e-015 90 90   XYZ
    dof ry
    limits (-180.0 0.0)
 end
  begin
     id 21 
     name lhand
     direction 1 -4.48855e-011 -2.48528e-027   
     length 0.599298   
     axis 1.58582e-015 90 90   XYZ
    dof rx rz
    limits (-90.0 90.0)
           (-45.0 45.0)
  end
  begin
     id 22 
     name lfingers
     direction 1 -4.48811e-011 -4.97056e-027   
     length 0.48317   
     axis 3.17164e-015 90 90   XYZ
    dof rx
    limits (0.0 90.0)
  end
  begin
     id 23
     name lthumb
     direction 0.707107 -6.34882e-011 0.707107   
     length 0.693738   
     axis -90 45 2.85299e-015   XYZ
    dof rx rz
    limits (-45.0 45.0)
           (-45.0 45.0)
  end
  begin
     id 24 
     name rclavicle
     direction -0.920511 0.384752 -0.0680135   
     length 3.43787  
     axis 0 0 0   XYZ 
    dof ry rz
    limits (-10.0 20.0)
           (-20.0 0.0)
  end
  begin
     id 25 
     name rhumerus
     direction -0.999976 -0.00330524 0.00603274  
     length 5.5498   
     axis 180 30 90   XYZ
    dof rx ry rz
    limits (-90.0 60.0)
           (-90.0 90.0)
           (-90.0 90.0)
  end
  begin
     id 26 
     name rradius
     direction -1 -4.48967e-011 8.62438e-027   
     length 3.69401   
     axis 180 30 90   XYZ
    dof rx
    limits (-10.0 170.0)
  end
  begin
     id 27 
     name rwrist
     direction -1 -4.4897e-011 9.54866e-027   
     length 1.84701   
     axis -7.69462e-015 -90 -90   XYZ
    dof ry
    limits (-180.0 0.0)
  end
  begin
     id 28
     name rhand
     direction -1 -4.48982e-011 1.90973e-026   
     length 0.638113   
     axis -1.21857e-014 -90 -90   XYZ
    dof rx rz
    limits (-90.0 90.0)
           (-45.0 45.0)
  end
  begin
     id 29
     name rfingers
     direction -1 -4.48936e-011 3.81946e-026   
     length 0.514463   
     axis -2.43714e-014 -90 -90   XYZ
    dof rx
    limits (0.0 90.0)
  end
  begin
     id 30
     name rthumb
     direction -0.707107 -6.34942e-011 0.707107   
     length 0.738669   
     axis -90 -45 -2.85299e-015   XYZ
    dof rx rz
    limits (-45.0 45.0)
           (-45.0 45.0)
  end
:hierarchy
  begin
    root lhipjoint rhipjoint lowerback
    lhipjoint lfemur
    lfemur ltibia
    ltibia lfoot
    lfoot ltoes
    rhipjoint rfemur
    rfemur rtibia
    rtibia rfoot
    rfoot rtoes
    lowerback upperback
    upperback thorax
    thorax lowerneck lclavicle rclavicle
    lowerneck upperneck
    upperneck head
    lclavicle lhumerus
    lhumerus lradius
    lradius lwrist
    lwrist lhand lthumb
    lhand lfingers
    rclavicle rhumerus
    rhumerus rradius
    rradius rwrist
    rwrist rhand rthumb
    rhand rfingers
  end

#!OML:ASF F:\twosubjects\two\Thursday\Session 1\Rory.ASF
:FULLY-SPECIFIED
:DEGREES
185
root 7.56894 10.2252 12.5056 149.576 -9.90162 186.671
lowerback 33.576 7.89341 -0.716552
upperback 16.1499 4.26458 -4.21405
thorax 0.805428 -0.0121828 -5.28409
lowerneck -5.84407 -10.4309 -7.00269
upperneck -8.69825 -13.9898 17.9932
head 0.253209 -7.52745 6.07621
rclavicle 6.36111e-015 -6.04305e-014
rhumerus -7.69511 20.8232 -72.3226
rradius 64.3624
rwrist 15.9128
rhand -29.2627 35.2272
rfingers 7.12502
rthumb -2.60541 5.2634
lclavicle 6.36111e-015 -6.04305e-014
lhumerus 11.4662 -39.2217 35.1379
lradius 85.5231
lwrist -7.86722
lhand -15.233 19.0814
lfingers 7.12502
lthumb 10.94 48.7764
rfemur -52.0251 -10.1808 -6.9666
rtibia 81.8515
rfoot 18.9441 -4.22929
rtoes -8.13907
lfemur -55.1454 23.4492 6.12388
ltibia 65.4486
lfoot 27.0723 -1.68352
ltoes 19.5961
186
root 7.57812 10.2064 12.5107 149.293 -9.80118 186.831
lowerback 33.4894 7.68865 -1.38604
upperback 16.2439 3.82758 -3.6881
thorax 0.827316 -0.309367 -4.25268
lowerneck -6.45591 -10.1067 -8.98161
upperneck -7.96131 -13.4435 18.524
head 0.687068 -7.13132 6.51465
rclavicle -2.54444e-014 -1.04958e-013
rhumerus -6.39784 22.5044 -71.2528
rradius 64.3304
rwrist 15.2531
rhand -28.5028 35.5597
rfingers 7.12502
rthumb -1.87148 5.58818
lclavicle -2.54444e-014 -1.04958e-013
lhumerus 9.60548 -38.1204 36.9019
lradius 85.4331
lwrist -7.64828
lhand -15.4947 19.1395
lfingers 7.12502
lthumb 10.6876 48.8476
rfemur -52.2296 -10.1846 -6.66948
rtibia 82.4757
rfoot 19.3287 -3.82293
rtoes -8.05046
lfemur -54.9654 23.4552 6.42925
ltibia 65.4459
lfoot 27.164 -2.19102
ltoes 18.2067
187
root 7.58964 10.1953 12.5111 149.112 -9.82703 186.679
lowerback 33.2782 7.63364 -2.31521
upperback 16.3484 3.49974 -3.28474
thorax 0.917653 -0.565689 -3.24712
lowerneck -6.863 -9.87563 -10.6045
upperneck -7.41353 -13.017 18.8644
head 0.994428 -6.82363 6.86625
rclavicle -4.92986e-014 -8.90555e-014
rhumerus -5.40211 23.9827 -70.4433
rradius 64.4928
rwrist 14.9148
rhand -28.5034 35.243
rfingers 7.12502
rthumb -1.87207 5.27148
lclavicle -4.92986e-014 -8.90555e-014
lhumerus 8.53231 -37.0997 38.1918
lradius 85.073
lwrist -7.44464
lhand -15.5293 19.1279
lfingers 7.12502
lthumb 10.6542 48.8378
rfemur -52.516 -10.1877 -6.72748
rtibia 83.1586
rfoot 19.377 -5.0893
rtoes -5.28187
lfemur -54.717 23.4821 6.37019
ltibia 65.4307
lfoot 27.1442 -2.46983
ltoes 17.1879
188
root 7.5986 10.1959 12.5141 148.953 -9.84376 186.628
lowerback 32.9339 7.4623 -2.98347
upperback 16.4479 3.1161 -3.09313
thorax 1.08787 -0.816603 -2.58324
lowerneck -7.04641 -9.57254 -11.2066
upperneck -7.1986 -12.541 18.568
head 1.0312 -6.54007 6.89901
rclavicle 4.29375e-014 7.63333e-014
rhumerus -4.5032 25.2725 -70.0587
rradius 64.3486
rwrist 15.2801
rhand -29.5168 35.2474
rfingers 7.12502
rthumb -2.85082 5.28674
lclavicle 4.29375e-014 7.63333e-014
lhumerus 7.47115 -36.1003 39.0934
lradius 84.839
lwrist -7.39724
lhand -14.8367 18.8476
lfingers 7.12502
lthumb 11.3223 48.522
rfemur -52.6842 -10.2014 -6.65388
rtibia 83.806
rfoot 19.2144 -6.33789
rtoes -4.48136
lfemur -54.4865 23.4575 6.38243
ltibia 65.4207
lfoot 27.1016 -2.51539
ltoes 16.9056
189
root 7.60167 10.1907 12.521 148.671 -9.78524 186.883
lowerback 32.8893 7.0274 -2.74747
upperback 16.4431 2.63512 -3.25168
thorax 1.10223 -1.02937 -2.73434
lowerneck -6.94547 -9.2702 -11.2229
upperneck -7.12385 -12.1298 18.2972
head 0.955231 -6.32735 6.85903
rclavicle -7.31528e-014 -1.59028e-014
rhumerus -3.90557 26.1049 -70.2801
rradius 64.0644
rwrist 15.7428
rhand -30.8718 34.5229
rfingers 7.12502
rthumb -4.15933 4.58376
lclavicle -7.31528e-014 -1.59028e-014
lhumerus 6.64531 -35.5858 39.2851
lradius 84.6896
lwrist -7.08767
lhand -14.5062 18.8028
lfingers 7.12502
lthumb 11.641 48.4595
rfemur -52.6794 -10.3173 -6.26279
rtibia 84.3992
rfoot 19.2341 -6.0106
rtoes -4.36183
lfemur -54.3243 23.3279 6.72482
ltibia 65.4535
lfoot 26.9801 -2.49996
ltoes 16.2923
190
root 7.59923 10.1667 12.521 148.288 -9.73313 187.115
lowerback 33.1381 6.62469 -2.20172
upperback 16.3881 2.24596 -3.53306
thorax 0.972027 -1.17427 -3.20596
lowerneck -6.95023 -9.09025 -11.5453
upperneck -6.63607 -11.9006 18.6814
head 1.11593 -6.18465 7.03367
rclavicle 2.38542e-015 -2.54444e-014
rhumerus -3.65858 26.355 -70.7316
rradius 63.9423
rwrist 15.5558
rhand -30.4989 34.8953
rfingers 7.12502
rthumb -3.79929 4.94937
lclavicle 2.38542e-015 -2.54444e-014
lhumerus 6.30643 -35.3475 39.1855
lradius 84.3551
lwrist -6.78615
lhand -14.7032 18.8085
lfingers 7.12502
lthumb 11.451 48.4758
rfemur -52.6648 -10.4195 -5.95814
rtibia 85.0634
rfoot 19.3073 -5.53777
rtoes -3.47113
lfemur -54.1236 23.1415 7.08678
ltibia 65.5395
lfoot 26.7742 -1.96552
ltoes 17.3401
191
root 7.60007 10.1574 12.5221 148.064 -9.71204 187.162
lowerback 32.8812 6.73576 -2.43709
upperback 16.4991 2.34885 -3.23973
thorax 1.16978 -1.15875 -2.8044
lowerneck -6.98535 -9.10481 -12.143
upperneck -6.27831 -11.8866 18.9266
head 1.27979 -6.14014 7.19478
rclavicle -5.56597e-014 -4.45278e-014
rhumerus -3.26545 26.4714 -70.2008
rradius 63.7294
rwrist 15.2468
rhand -30.3622 35.844
rfingers 7.12502
rthumb -3.66719 5.89583
lclavicle -5.56597e-014 -4.45278e-014
lhumerus 6.45436 -34.9695 39.8708
lradius 83.7718
lwrist -6.86951
lhand -14.7001 18.7461
lfingers 7.12502
lthumb 11.454 48.4132
rfemur -52.7714 -10.4722 -5.7982
rtibia 85.7479
rfoot 18.9632 -6.14723
rtoes -1.86937
lfemur -53.9328 23.0458 7.20577
ltibia 65.5825
lfoot 26.5612 -1.52396
ltoes 18.9062
192
root 7.60556 10.1617 12.5267 147.952 -9.80896 186.953
lowerback 32.4854 7.04811 -2.98895
upperback 16.5992 2.6404 -2.95107
thorax 1.39505 -1.06629 -2.29242
lowerneck -6.57892 -9.19384 -12.0757
upperneck -6.44334 -12.006 18.6891
head 1.16029 -6.21327 7.12328
rclavicle -2.78299e-014 -9.54166e-015
rhumerus -3.2223 26.4743 -69.6595
rradius 63.6537
rwrist 15.1173
rhand -31.5284 36.1529
rfingers 7.12502
rthumb -4.79333 6.2271
lclavicle -2.78299e-014 -9.54166e-015
lhumerus 6.86858 -34.9091 40.4259
lradius 83.262
lwrist -7.1194
lhand -14.6208 18.614
lfingers 7.12502
lthumb 11.5304 48.2769
rfemur -52.8968 -10.5047 -5.89565
rtibia 86.3981
rfoot 18.4387 -6.65883
rtoes -1.79544
lfemur -53.731 22.9973 6.99838
ltibia 65.5601
lfoot 26.3339 -1.65734
ltoes 18.6942
193
root 7.61037 10.1642 12.5385 147.715 -10.0234 186.588
lowerback 32.5995 7.17092 -3.20832
upperback 16.6228 2.68387 -3.1196
thorax 1.37742 -1.06715 -2.36992
lowerneck -6.17724 -9.23099 -11.7716
upperneck -6.60853 -12.0956 18.6861
head 1.04172 -6.28803 7.08966
rclavicle 6.12257e-014 9.22361e-014
rhumerus -3.40271 26.1866 -69.8926
rradius 63.8374
rwrist 14.9823
rhand -32.2388 36.1521
rfingers 7.12502
rthumb -5.47934 6.24293
lclavicle 6.12257e-014 9.22361e-014
lhumerus 7.44464 -35.0459 40.1784
lradius 82.8155
lwrist -7.10132
lhand -14.4734 18.2959
lfingers 7.12502
lthumb 11.6726 47.9507
rfemur -52.8827 -10.6574 -6.20264
rtibia 86.9993
rfoot 18.2984 -6.72817
rtoes -2.63974
lfemur -53.3963 22.8947 6.61379
ltibia 65.5159
lfoot 26.231 -1.90494
ltoes 17.9489
194
root 7.61625 10.1654 12.5571 147.398 -10.2038 186.288
lowerback 32.943 7.27195 -3.24672
upperback 16.6257 2.71007 -3.34195
thorax 1.26507 -1.06891 -2.59749
lowerneck -5.90689 -9.278 -11.5708
upperneck -6.62382 -12.1996 18.8659
head 1.0113 -6.36035 7.11719
rclavicle 5.80451e-014 -3.49861e-014
rhumerus -3.51682 25.7118 -70.306
rradius 64.1058
rwrist 14.6565
rhand -31.9604 36.3459
rfingers 7.12502
rthumb -5.21051 6.42993
lclavicle 5.80451e-014 -3.49861e-014
lhumerus 8.21345 -35.2266 39.7518
lradius 82.3483
lwrist -6.45057
lhand -13.7694 18.0577
lfingers 7.12502
lthumb 12.3514 47.6728
rfemur -52.841 -10.8666 -6.41903
rtibia 87.5622
rfoot 18.4461 -6.94729
rtoes -1.17978
lfemur -53.0167 22.7779 6.31813
ltibia 65.4977
lfoot 26.2074 -2.03034
ltoes 18.0223
